<svg height="200px" width="200px" version="1.1" id="Layer_1" xmlns="http://www.w3.org/2000/svg"
    xmlns:xlink="http://www.w3.org/1999/xlink" viewBox="0 0 512 512" xml:space="preserve"
    fill="#000000"><g id="SVGRepo_bgCarrier" stroke-width="0"></g><g id="SVGRepo_tracerCarrier" stroke-linecap="round" stroke-linejoin="round"></g><g id="SVGRepo_iconCarrier"> <path style="fill:#EAB96C;" d="M332.945,82.879l29.236,29.533c-9.39,9.638-14.326,22.351-14.326,35.251 c0,7.107,1.488,14.252,4.565,20.987l6.599,14.426c15.145,33.155-4.019,70.131-36.665,79.21c-0.695,0.198-1.637,0.409-2.754,0.62 c-15.033,2.94-28.591,10.977-38.34,22.798c-9.737-11.821-23.307-19.858-38.327-22.798c-1.129-0.211-2.071-0.422-2.754-0.62 c-32.647-9.08-51.81-46.055-36.665-79.21l6.586-14.426c3.076-6.735,4.565-13.892,4.565-20.987c0-12.9-4.937-25.626-14.314-35.251 l29.236-29.533c7.07,6.115,16.286,9.799,26.358,9.799c9.588,0,18.395-3.349,25.316-8.943c6.921,5.594,15.728,8.943,25.328,8.943 C316.659,92.678,325.863,88.994,332.945,82.879z"></path> <path style="fill:#E6E6E6;" d="M442.222,401.481v100.544H120.296c-21.533,0-39.915-13.557-47.072-32.597 c-2.071-5.495-3.2-11.449-3.2-17.675c0-13.88,5.631-26.457,14.723-35.549c9.104-9.092,21.669-14.723,35.549-14.723H442.222z"></path> <path style="fill:#f7941d;" d="M442.222,8.63v392.85H120.296V8.63H442.222z M362.181,112.412l-29.236-29.533 c-7.082,6.115-16.286,9.799-26.358,9.799c-9.6,0-18.407-3.349-25.328-8.943c-6.921,5.594-15.728,8.943-25.316,8.943 c-10.072,0-19.288-3.684-26.358-9.799l-29.236,29.533c9.377,9.625,14.314,22.351,14.314,35.251c0,7.095-1.488,14.252-4.565,20.987 l-6.586,14.426c-15.145,33.155,4.019,70.131,36.665,79.21c0.682,0.198,1.625,0.409,2.754,0.62 c15.021,2.94,28.591,10.977,38.327,22.798c9.749-11.821,23.307-19.858,38.34-22.798c1.116-0.211,2.059-0.422,2.754-0.62 c32.647-9.08,51.81-46.055,36.665-79.21l-6.599-14.426c-3.076-6.735-4.565-13.88-4.565-20.987 C347.854,134.764,352.791,122.05,362.181,112.412z"></path> <path style="fill:#f7941d;" d="M120.296,8.63v392.85c-13.88,0-26.445,5.631-35.549,14.723c-9.092,9.092-14.723,21.669-14.723,35.549 V58.903C70.024,31.143,92.537,8.63,120.296,8.63z"></path> <path style="fill:#CCCCCC;" d="M120.296,401.481c-13.88,0-26.445,5.631-35.549,14.723c-9.092,9.092-14.723,21.669-14.723,35.549 c0,6.227,1.129,12.18,3.2,17.675c2.543-6.772,6.5-12.85,11.523-17.874c9.104-9.092,21.669-14.723,35.549-14.723h321.926v-35.351 H120.296z"></path> <path d="M367.355,179.878l-6.596-14.419c-2.471-5.409-3.724-11.171-3.724-17.122c0-10.811,4.15-21.024,11.687-28.76 c3.54-3.633,3.516-9.432-0.052-13.036l-29.236-29.533c-3.441-3.477-8.988-3.695-12.69-0.496c-5.63,4.86-12.832,7.538-20.279,7.538 c-7.179,0-13.916-2.378-19.481-6.875c-3.411-2.757-8.284-2.757-11.695,0c-5.566,4.498-12.297,6.875-19.468,6.875 c-7.457,0-14.656-2.675-20.273-7.533c-3.701-3.203-9.252-2.988-12.696,0.491l-29.236,29.533c-3.569,3.605-3.592,9.403-0.052,13.036 c7.528,7.728,11.674,17.942,11.674,28.76c0,5.951-1.253,11.713-3.724,17.123l-6.586,14.424c-8.129,17.797-8.082,38.124,0.129,55.771 c8.304,17.845,23.796,31.064,42.396,36.236c0.98,0.285,2.172,0.558,3.569,0.819c12.918,2.529,24.614,9.484,32.933,19.583 c1.766,2.145,4.398,3.387,7.178,3.389c0.001,0,0.001,0,0.003,0c2.777,0,5.409-1.24,7.177-3.384 c8.335-10.107,20.037-17.063,32.89-19.577c1.425-0.269,2.586-0.533,3.551-0.807c18.695-5.208,34.175-18.423,42.475-36.258 C375.439,218.007,375.486,197.68,367.355,179.878z M350.359,227.804c-6.003,12.902-17.165,22.449-30.622,26.192 c-0.021,0.006-0.043,0.012-0.064,0.019c-0.186,0.053-0.747,0.201-1.982,0.435c-13.692,2.678-26.364,9.118-36.551,18.448 c-10.181-9.329-22.861-15.77-36.622-18.463c-1.194-0.223-1.725-0.368-1.968-0.438c-13.457-3.742-24.618-13.289-30.622-26.192 c-5.998-12.891-6.024-27.164-0.074-40.192l6.586-14.424c3.586-7.853,5.404-16.214,5.404-24.852c0-12.601-3.88-24.641-11.068-34.706 l17.73-17.91c7.608,4.51,16.347,6.932,25.315,6.932c8.924,0,17.696-2.434,25.316-6.949c7.622,4.515,16.398,6.949,25.328,6.949 c8.959,0,17.698-2.424,25.312-6.935l17.731,17.911c-7.194,10.069-11.079,22.11-11.079,34.707c0,8.637,1.818,16.999,5.407,24.857 l6.598,14.421C356.384,200.64,356.357,214.914,350.359,227.804z"></path> <path d="M451.402,95.422c0-5.138-4.165-9.303-9.303-9.303s-9.303,4.165-9.303,9.303V392.85h-303.32v-52.469 c0-5.138-4.165-9.303-9.303-9.303s-9.303,4.165-9.303,9.303v53.197c-11.852,1.849-22.818,7.231-31.667,15.619V59.575 c0-19.391,13.545-35.666,31.667-39.892v290.311c0,5.138,4.165,9.303,9.303,9.303s9.303-4.165,9.303-9.303V18.606h303.32v46.428 c0,5.138,4.165,9.303,9.303,9.303s9.303-4.165,9.303-9.303V9.303c0-5.138-4.165-9.303-9.303-9.303H120.173 c-32.85,0-59.575,26.725-59.575,59.575v392.85c0,32.85,26.725,59.575,59.575,59.575h321.926c5.138,0,9.303-4.165,9.303-9.303 L451.402,95.422L451.402,95.422z M120.173,493.394c-22.591,0-40.969-18.379-40.969-40.969c0-10.945,4.262-21.234,11.994-28.966 c7.751-7.74,18.041-12.003,28.975-12.003h312.623v15.451H206.874c-5.138,0-9.303,4.165-9.303,9.303s4.165,9.303,9.303,9.303h225.922 v13.821h-77.078c-5.138,0-9.303,4.165-9.303,9.303s4.165,9.303,9.303,9.303h77.078v15.455H120.173z"></path> <path d="M328.43,459.334H118.808c-5.138,0-9.303,4.165-9.303,9.303s4.165,9.303,9.303,9.303H328.43c5.138,0,9.303-4.165,9.303-9.303 S333.569,459.334,328.43,459.334z"></path> <path d="M206.56,319.101c-5.138,0-9.303,4.165-9.303,9.303c0,5.138,4.165,9.303,9.303,9.303h149.158 c5.138,0,9.303-4.165,9.303-9.303c0-5.138-4.165-9.303-9.303-9.303H206.56z"></path> <path d="M309.046,146.699h-55.814c-5.138,0-9.303,4.165-9.303,9.303s4.165,9.303,9.303,9.303h55.814 c5.138,0,9.303-4.165,9.303-9.303C318.348,150.864,314.185,146.699,309.046,146.699z"></path> <path d="M309.046,176.466h-55.814c-5.138,0-9.303,4.165-9.303,9.303c0,5.138,4.165,9.303,9.303,9.303h55.814 c5.138,0,9.303-4.165,9.303-9.303C318.348,180.631,314.185,176.466,309.046,176.466z"></path> </g></svg>