<svg height="200px" width="200px" version="1.1" id="Layer_1" xmlns="http://www.w3.org/2000/svg"
    xmlns:xlink="http://www.w3.org/1999/xlink" viewBox="0 0 469.343 469.343" xml:space="preserve"
    fill="#000000"><g id="SVGRepo_bgCarrier" stroke-width="0"></g><g id="SVGRepo_tracerCarrier" stroke-linecap="round" stroke-linejoin="round"></g><g id="SVGRepo_iconCarrier"> <polygon style="fill:#F5B945;" points="416,416.005 138.666,416.005 160,74.671 394.666,74.671 "></polygon> <polygon style="fill:#B88B34;" points="458.666,416.005 416,416.005 394.666,74.671 437.333,74.671 "></polygon> <path d="M447.978,74.01c-0.352-5.621-5.013-10.005-10.645-10.005h-32c0-35.296-28.704-64-64-64c-11.659,0-22.571,3.189-32,8.661 c-9.429-5.472-20.341-8.661-32-8.661c-35.296,0-64,28.704-64,64H160c-5.632,0-10.293,4.384-10.645,10.005l-21.333,341.333 c-0.192,2.933,0.853,5.824,2.88,7.968c2.005,2.144,4.821,3.36,7.765,3.36H416h42.667c2.944,0,5.76-1.216,7.776-3.36 c2.016-2.144,3.061-5.035,2.88-7.968L447.978,74.01z M384,64.005h-42.667c0-15.157-5.323-29.088-14.165-40.064 c4.459-1.579,9.173-2.603,14.165-2.603C364.864,21.338,384,40.474,384,64.005z M309.333,36.079 C315.893,43.589,320,53.285,320,64.005h-21.333C298.666,53.285,302.773,43.589,309.333,36.079z M277.333,21.338 c4.992,0,9.707,1.024,14.165,2.603c-8.843,10.976-14.165,24.907-14.165,40.064h-42.667 C234.666,40.474,253.802,21.338,277.333,21.338z M150.016,405.338l20-320h43.317v21.333c0,5.888,4.768,10.667,10.667,10.667 c5.899,0,10.667-4.779,10.667-10.667V85.338H320v21.333c0,5.888,4.768,10.667,10.667,10.667s10.667-4.779,10.667-10.667V85.338 h43.317l20,320H150.016z M426.016,405.338l-20-320h21.291l20,320H426.016z"></path> <circle cx="224" cy="149.338" r="10.667"></circle> <circle cx="277.333" cy="149.338" r="10.667"></circle> <circle cx="330.666" cy="149.338" r="10.667"></circle> <path style="fill:#f7941d;" d="M330.666,224.005h-320L30.24,439.269c0.992,10.987,10.208,19.403,21.237,19.403h257.856 L330.666,224.005z"></path> <path style="fill:#f7941d;" d="M373.333,224.005h-42.667l-21.333,234.667h23.189c11.029,0,20.245-8.416,21.248-19.403 L373.333,224.005z"></path> <path d="M381.205,216.815c-2.016-2.219-4.875-3.477-7.872-3.477h-42.667h-320c-2.997,0-5.856,1.259-7.872,3.477 c-2.016,2.219-3.019,5.173-2.752,8.16L19.616,440.25c1.504,16.576,15.211,29.088,31.861,29.088h257.856h23.189 c16.661,0,30.357-12.512,31.861-29.109l19.573-215.264C384.224,221.989,383.232,219.023,381.205,216.815z M40.864,438.309 L22.346,234.671h296.64l-19.392,213.333H51.477C45.93,448.005,41.365,443.834,40.864,438.309z M343.136,438.298 c-0.501,5.536-5.067,9.707-10.613,9.707h-11.509l19.392-213.333h21.248L343.136,438.298z"></path> <circle cx="128" cy="394.671" r="10.667"></circle> <circle cx="170.666" cy="394.671" r="10.667"></circle> <circle cx="213.333" cy="394.671" r="10.667"></circle> <path d="M170.666,352.005c-47.051,0-85.333-38.283-85.333-85.333c0-5.888,4.768-10.667,10.667-10.667 c5.899,0,10.667,4.779,10.667,10.667c0,35.296,28.704,64,64,64s64-28.704,64-64c0-5.888,4.768-10.667,10.667-10.667 S256,260.783,256,266.671C256,313.722,217.717,352.005,170.666,352.005z"></path> </g></svg>