<svg viewBox="-12.59 0 377.621 377.621" xmlns="http://www.w3.org/2000/svg" fill="#000000">
    <g id="SVGRepo_bgCarrier" stroke-width="0"></g>
    <g id="SVGRepo_tracerCarrier" stroke-linecap="round" stroke-linejoin="round"></g>
    <g id="SVGRepo_iconCarrier">
        <defs>
            <style>
                .a{fill:#7a7473;}.b{fill:#211715;}.c{fill:#ffffff;}.d{fill:#f7941d;}.e{fill:#d9d9d9;}</style>
        </defs>
        <path class="a"
            d="M178.4,156.005c2.307-9.144-2.582-21.663-10.73-30.033-6.593-7.185-17.111-9.63-19.931-5.362a24.071,24.071,0,0,0-4.017,10.841c-.125,1.024-.214,2.113-.257,3.27q-.042,1.1-.025,2.281c.079,4.409,1.189,8.929,1.408,13.338.2,4.394-.941,8.719-5.132,10.143-.165.056-.2.592-.194.728a1.918,1.918,0,0,0,.336.939A6.48,6.48,0,0,0,142,164.034c4.674,2.865,11.865,4.563,19.475,3.406C170.225,166.109,177.314,161.162,178.4,156.005Z"></path>
        <path class="b"
            d="M144.726,120.873c-3.143,5.5-4.084,12-3.579,18.262.29,3.593,1.049,7.133,1.27,10.732.136,2.219.1,4.8-1.236,6.7a4.67,4.67,0,0,1-1.773,1.484c-.987.488-1.749.761-2.111,1.916a4.077,4.077,0,0,0-.04,2.218c.8,2.95,4.352,4.541,6.925,5.617a33.474,33.474,0,0,0,18.788,1.814c6.154-1.115,12.572-4.1,16.195-9.387,1.751-2.554-2.407-4.957-4.145-2.423-3.316,4.836-10.265,7.067-15.856,7.5a29.61,29.61,0,0,1-10.457-.986,22.554,22.554,0,0,1-3.985-1.52,17.419,17.419,0,0,1-1.851-1.055c-.281-.189-.6-.578-.877-.73-.241-.132,0-.039-.068.223l-.617,1.059.1-.118-1.06.617a9.975,9.975,0,0,0,6.368-7.014c.96-3.552.443-7.259-.048-10.837-1.009-7.354-1.631-14.948,2.2-21.651,1.535-2.686-2.611-5.107-4.145-2.422Z"></path>
        <path class="c"
            d="M257.665,89.952a8.047,8.047,0,0,1,6.435-1.883,7.594,7.594,0,0,1,5.46,3.63,10.716,10.716,0,0,1,1.124,4.319,32.175,32.175,0,0,1-3.28,17.055,20.462,20.462,0,0,1-5.288,6.94,13.564,13.564,0,0,1-6.3,2.842l-1.079.166c-.517,1.937-1.1,3.568-1.384,4.434-1.9,5.157-12.838,23.448-26.4,29.135a73.984,73.984,0,0,0,1.148,11.423c.65,3.72.45,7.05,5.62,8.92.34.12,6.17,2.39,6.69,2.61,0,0-5.624,31.3-36.735,31.3s-34.057-32.657-34.057-32.657c1-.34,3.407-1.132,3.749-1.256,5.176-1.869,4.972-5.2,5.625-8.92a73.668,73.668,0,0,0,1.145-11.646,46.787,46.787,0,0,1-16.055-12.84,54.7,54.7,0,0,1-10.427-20.354l-2.056-.316a13.568,13.568,0,0,1-6.305-2.842,20.462,20.462,0,0,1-5.288-6.94,32.175,32.175,0,0,1-3.28-17.055,10.716,10.716,0,0,1,1.124-4.319,7.594,7.594,0,0,1,5.46-3.63,8.047,8.047,0,0,1,6.435,1.883s-2.815-48.886,51.708-48.886S257.665,89.952,257.665,89.952Z"></path>
        <path class="c"
            d="M178.029,163.9c1.622,4.011,7.668,14.466,9.49,17.68,3.623,6.387,10.5,17.8,14.944,23.883l.217.3,1.381-1.934c2.339-3.275,8.914-12.68,10.376-14.748,3.158-4.468,12.085-19.646,15.307-25.177"></path>
        <path class="b"
            d="M177.729,156.438a68.984,68.984,0,0,1-.666,8.469,62.579,62.579,0,0,1-1.038,6.207c-.047.187-.1.373-.154.557-.016.051-.211.611-.112.359s-.138.288-.164.337a5.679,5.679,0,0,1-.359.594c.185-.265-.066.081-.151.171a4.41,4.41,0,0,1-1.514,1.108,32.255,32.255,0,0,1-4.6,1.633,2.456,2.456,0,0,0-1.676,2.952,2.423,2.423,0,0,0,2.952,1.676,37.054,37.054,0,0,0,5.888-2.19,9.039,9.039,0,0,0,4.329-5.255,40.73,40.73,0,0,0,1.167-6.462,78.9,78.9,0,0,0,.9-10.156c.06-3.09-4.74-3.09-4.8,0Z"></path>
        <path class="b"
            d="M224.541,156.593a92.487,92.487,0,0,0,1.324,12.586c.412,2.582.769,5.075,2.539,7.134,1.6,1.858,3.9,2.63,6.108,3.486,1.752.679,3.516,1.336,5.251,2.058a2.415,2.415,0,0,0,2.953-1.676,2.463,2.463,0,0,0-1.677-2.953c-1.533-.637-3.093-1.219-4.641-1.82-1.565-.608-3.346-1.106-4.431-2.3a4.486,4.486,0,0,1-.964-2.186c-.253-1.082-.372-2.19-.552-3.285a78.441,78.441,0,0,1-1.11-11.047c-.067-3.085-4.867-3.1-4.8,0Z"></path>
        <path class="d"
            d="M123.456,196.136c1.638-1.308,31.061-16.151,46.017-23.308,0,0,5.389-2.526,10.472-4.912,2.47,4.783,6.208,11.259,7.574,13.668,3.623,6.387,10.5,17.8,14.944,23.883l.217.3c.69-.968,1.381-1.935,1.381-1.935,2.339-3.275,8.914-12.68,10.376-14.748,2.5-3.538,8.62-13.793,12.657-20.65l7.307,2.642c13.022,5.781,37.3,17.714,46.64,22.663l1.528.756c14.693,7.272,32.241,30.723,50.013,55.673,5.826,8.178,19,23.708,17.324,34.384-1.786,11.393-11.417,27.5-18.315,36.445-9.446,12.253-19.159,26.181-29.311,35.788-7.545-5.7-18.5-16.989-25.849-23.07,4.986-10.306,22.646-40.576,25.19-47.395,0,0,.117-.237.322-.619-3.019-4.048-19.008-19.942-25.58-26.356-2.476,16-5.058,31.9-6.981,44.907-.364,2.456,4.222,52,4.971,55.458l.132.609h-.617s-67.171,0-134.3,0c0-6.411-.782-51.662-1.275-55-.719-4.857-1.529-10.142-2.392-15.7l-.344-2.218-1.716,4.538a77.053,77.053,0,0,1-6.286,12.536c-3.212,5.164-3.718,6.6-8.512,11.839-7.5,8.2-18.009,12.828-29.734,7.785-11.472-4.933-15.431-15.359-20.646-24.875-10.265-18.734-22.458-48.991-25.537-58.9,4.529-2.728,29.995-16.726,32.99-17.314,2.379,3.369,17.991,32.913,24.914,44.546.326-1.612.589-2.9.589-2.9.53-2.246,2.339-13.336,3.621-17.618,3.116-13.251,6.141-26.075,8.054-33.412,1.165-4.467,3.654-11.32,7.18-15.5a26.945,26.945,0,0,1,3.677-2.522"></path>
        <path class="b"
            d="M141.971,360.3c0-7.621-.194-15.246-.338-22.865-.176-9.282-.331-18.569-.691-27.846a84.993,84.993,0,0,0-1.021-9.5q-1.506-9.978-3.081-19.945c-2.268-14.528-4.55-29.055-6.614-43.614-1.747-12.326-3.449-24.7-4.3-37.125q-.118-1.734-.2-3.469c-.15-3.075-4.951-3.093-4.8,0,.585,11.978,2.2,23.916,3.827,35.789,1.986,14.536,4.237,29.034,6.5,43.529q1.622,10.389,3.232,20.781.714,4.655,1.409,9.313a3.532,3.532,0,0,1,.092.621c-.01.137-.049-.756-.072-.535a1.208,1.208,0,0,0,.019.179c.009.172.03.345.043.517.034.474.058.949.082,1.423.425,8.616.528,17.255.7,25.879.171,8.521.346,17.044.41,25.566,0,.435.006.87.006,1.306,0,3.088,4.8,3.093,4.8,0Z"></path>
        <path class="b"
            d="M276.668,359.069c-.06-.284-.1-.571-.141-.858-.1-.616.078.635-.011-.079-.037-.3-.074-.589-.11-.884-.182-1.509-.346-3.02-.506-4.531-.475-4.471-.91-8.946-1.335-13.422-.9-9.506-1.78-19.019-2.469-28.544a57.65,57.65,0,0,1-.32-6.461c-.027.673.033-.163.061-.354l.192-1.284q.183-1.227.369-2.453.385-2.538.776-5.073.812-5.262,1.642-10.522c2.375-15.1,4.8-30.2,6.994-45.334,1.9-13.127,3.787-26.308,4.716-39.547q.133-1.9.227-3.8c.151-3.088-4.649-3.08-4.8,0-.611,12.516-2.349,24.991-4.1,37.388-2.151,15.214-4.571,30.389-6.964,45.567-1.106,7.007-2.209,14.015-3.268,21.029a31.168,31.168,0,0,0-.653,5.235c.024,1.131.1,2.261.176,3.39.6,9.144,1.456,18.275,2.306,27.4.731,7.846,1.322,15.75,2.449,23.552.042.287.081.574.141.858.637,3.021,5.265,1.742,4.629-1.276Z"></path>
        <path class="b"
            d="M139.707,362.716H273.868c3.089,0,3.094-4.8,0-4.8H139.707c-3.088,0-3.093,4.8,0,4.8Z"></path>
        <path class="b"
            d="M168.262,170.756c-13.931,6.67-27.793,13.544-41.452,20.758a34.08,34.08,0,0,0-5.051,2.925,2.412,2.412,0,0,0,0,3.394,2.462,2.462,0,0,0,3.394,0c-.866.67-.237.2,0,.056.285-.174.577-.336.867-.5.862-.483,1.734-.949,2.607-1.412,2.761-1.467,5.542-2.9,8.326-4.32q11.07-5.66,22.224-11.152,5.739-2.832,11.5-5.606a2.421,2.421,0,0,0,.861-3.283,2.452,2.452,0,0,0-3.284-.861Z"></path>
        <path class="b"
            d="M233.189,173.146c15.184,6.747,30.17,14.082,44.908,21.753,1.21.63,2.419,1.264,3.614,1.923.385.212.769.425,1.146.651.255.153,1.082.755.186.059a2.479,2.479,0,0,0,3.394,0,2.415,2.415,0,0,0,0-3.394,31.061,31.061,0,0,0-4.7-2.745c-3.018-1.589-6.062-3.129-9.111-4.659Q260.383,180.587,248,174.718c-4.109-1.946-8.23-3.871-12.385-5.717a2.476,2.476,0,0,0-3.284.861,2.419,2.419,0,0,0,.861,3.284Z"></path>
        <path class="b"
            d="M122.942,193.54a15.618,15.618,0,0,0-4.794,3.688,33.21,33.21,0,0,0-4.141,7.157,85.449,85.449,0,0,0-4.349,13.835c-1.462,5.893-2.863,11.8-4.261,17.711-1.23,5.2-2.605,10.387-3.69,15.622-.858,4.141-1.448,8.35-2.4,12.471-.694,3.006,3.933,4.289,4.629,1.276.8-3.446,1.306-6.966,1.989-10.436.951-4.829,2.2-9.591,3.327-14.38q2.093-8.877,4.236-17.741a128.283,128.283,0,0,1,3.634-13.314,38.7,38.7,0,0,1,3.718-7.742,15.055,15.055,0,0,1,1.11-1.585,5.69,5.69,0,0,1,.44-.472c-.33.317.195-.144.278-.2a29.506,29.506,0,0,1,2.7-1.741c2.694-1.512.277-5.66-2.423-4.145Z"></path>
        <path class="b"
            d="M200.511,205.467c0,6.346.03,12.693.049,19.039q.055,18.024.117,36.048.071,20.94.143,41.879.061,18.267.122,36.533.033,9.991.06,19.982c0,.262,0,.525,0,.787,0,3.088,4.8,3.093,4.8,0,0-5.756-.031-11.512-.049-17.268q-.057-17.569-.118-35.137-.071-20.914-.142-41.828-.063-18.669-.123-37.34-.033-10.823-.059-21.643c0-.351,0-.7,0-1.052,0-3.088-4.8-3.094-4.8,0Z"></path>
        <path class="c"
            d="M48.136,236.538c-2.787-4.363-8.389-8.219-11.3-12.888-3.576-5.727-7-16.379-7.964-20.5-2.545-6.162,1.292-14.091,6.585-18.008,5.392-3.788,9.725-6.087,17.067-7.312,3.65-.609,8.9-.833,10.228,2.536,1.822,4.629,1.461,5.722-1.461,7.712a6.173,6.173,0,0,1,7.528,3.267c1.153,2.516-.416,6.063-3.785,7.978,4.69-1.514,5.858,1.85,6.561,3.761a5.533,5.533,0,0,1-2.723,7.2c7.1.947,3.314,11.281-1.006,13.061l1.444,2.312Z"></path>
        <path class="c"
            d="M62.353,179.594c-.016-.213-.02-.343-.02-.343-.174-5.218-.311-15.788-6.891-16.293-8.061-.619-4.864,7.282-7.3,15.826a42.135,42.135,0,0,1,4.381-.954C55.876,177.27,60.588,177.036,62.353,179.594Z"></path>
        <path class="e"
            d="M34.331,185.425c-.917-1.879-4.717-12.609-5.975-15.464-2.177-4.94-4.077-10.772-9.178-13.805-5.85-3.478-10.87-6.105-14.668-12.14-2.995-4.758-2.362-10.519-.873-15.785,1.876-6.633,8.18-13.548,11.765-14.677.55,1.98,2.773,15.343,3.365,18.4,1.041.761,6.957,2.949,8.449,2.929,1.489-.452,6.152-3.476,8.224-5.146-.106-2.968-1.065-15.368-1.353-18.2,9,2.038,19.9,14.732,18.2,24.821-.943,5.57-3.128,9.975-5.218,15.091-2.155,5.277-.388,9.486,1.516,14.467,1.014,2.653,2.291,7.228,4.12,11.015"></path>
        <path class="b"
            d="M44.578,198.014c3.243-1.322,6.442-2.759,9.65-4.163q2.628-1.15,5.255-2.3.977-.426,1.954-.85c.234-.1.469-.2.7-.3.6-.26-.591.243-.026.012a2.478,2.478,0,0,0,1.676-2.952,2.416,2.416,0,0,0-2.952-1.676c-2.91,1.191-5.775,2.5-8.655,3.76q-2.74,1.2-5.483,2.393-1.125.487-2.253.971c-.217.093-1.226.591-.43.184-.227.116-.479.2-.715.3a2.475,2.475,0,0,0-1.676,2.952,2.416,2.416,0,0,0,2.952,1.676Z"></path>
        <path class="b"
            d="M49.352,208.894a92.308,92.308,0,0,1,9.322-4.32l.587-.248.291-.122q.6-.254,1.2-.5,1.077-.45,2.155-.9c1.089-.453,2.189-.888,3.262-1.379a2.42,2.42,0,0,0,.861-3.284,2.457,2.457,0,0,0-3.284-.861c-.15.069-.3.135-.454.2l-.261.112c-.377.164.613-.256.11-.046l-1.815.756q-2.541,1.055-5.076,2.126a92.3,92.3,0,0,0-9.322,4.321,2.4,2.4,0,1,0,2.423,4.144Z"></path>
        <path class="b"
            d="M55.744,219c4.972-2.193,9.824-4.646,14.715-7.01a2.412,2.412,0,0,0,.861-3.283,2.462,2.462,0,0,0-3.283-.861c-4.892,2.363-9.744,4.816-14.716,7.009a2.409,2.409,0,0,0-.861,3.284,2.474,2.474,0,0,0,3.284.861Z"></path>
        <path class="b"
            d="M50.208,235.327a51.566,51.566,0,0,0-6.986-7.818,30.026,30.026,0,0,1-5.725-7.576,81.263,81.263,0,0,1-6.091-16.519,21.591,21.591,0,0,1-.912-3.579,11.684,11.684,0,0,1,.457-4.194,16.773,16.773,0,0,1,4.736-7.584,32.525,32.525,0,0,1,7.983-5.089,34.973,34.973,0,0,1,9.487-2.824,18.877,18.877,0,0,1,4.412-.239,6.844,6.844,0,0,1,1.752.354,2.239,2.239,0,0,1,.991.62,7.411,7.411,0,0,1,.8,2,6.425,6.425,0,0,1,.35,1.694c0,.294.04-.062.041-.1,0,.066-.166.6-.049.291.11-.291-.352.5-.035.1a5.421,5.421,0,0,1-1.341,1.143c-2.145,1.482-.9,5.174,1.849,4.387a3.806,3.806,0,0,1,4.77,2.106,2.877,2.877,0,0,1-.29,2.136,6.358,6.358,0,0,1-2.586,2.616c-2.3,1.368-.806,5.182,1.849,4.386a4.547,4.547,0,0,1,1.778-.288c-.267-.027.351.084.419.11-.354-.131.212.12.284.179-.336-.275.138.148.2.216.358.41-.1-.2.163.218.115.186.216.378.323.568.065.127.126.255.185.385q-.137-.336-.042-.1c.849,2.087.958,4.187-1.319,5.287-1.762.851-1.45,4.075.574,4.386a7.125,7.125,0,0,1,1.031.225c.141.044.325.132.087.02a4.1,4.1,0,0,1,.478.274c.313.2-.3-.173.008.014.038.023.34.348.154.13s.349.6.213.321a6.363,6.363,0,0,0,.192.683c.057.235.025.219.005-.009.013.144.025.29.024.434,0,.3-.008.6-.036.9.041-.429-.1.493-.132.626-.076.311-.166.619-.268.922q-.078.231-.166.457c-.147.379.125-.27-.043.1a12.1,12.1,0,0,1-1.01,1.784c-.075.111-.2.282-.042.079-.092.12-.191.238-.292.351-.2.222-.4.431-.614.637-.043.041-.485.407-.24.219.212-.163-.127.085-.169.108-.253.142-.493.287-.76.4a2.416,2.416,0,0,0-.861,3.283,2.461,2.461,0,0,0,3.284.861c6.458-2.832,9.441-16.062.433-17.447l.573,4.386c4.209-2.032,5.09-6.87,3.448-10.9a8.033,8.033,0,0,0-2.955-3.969,7.41,7.41,0,0,0-6.18-.484L66.24,201.4c3.424-2.036,6.48-6.279,4.994-10.433a8.652,8.652,0,0,0-10.586-5.2l1.85,4.387a9.079,9.079,0,0,0,3.144-3.067,6.529,6.529,0,0,0,.354-4.55,11.1,11.1,0,0,0-2.267-5.016,7.858,7.858,0,0,0-4.435-2.2c-3.609-.63-7.4.045-10.916.919A37.6,37.6,0,0,0,38.15,180.5a28.216,28.216,0,0,0-8.607,7.319,19.469,19.469,0,0,0-3.873,10.64c-.111,3.021,1,6.021,1.857,8.885a104.663,104.663,0,0,0,3.5,9.884,39.154,39.154,0,0,0,6.182,10.892c2.832,3.289,6.459,5.976,8.851,9.627,1.686,2.574,5.844.172,4.144-2.422Z"></path>
        <path class="b"
            d="M51.9,168.74c.015-.133.031-.267.046-.4-.009.084-.082.5,0,.058.037-.215.07-.431.112-.645a10.862,10.862,0,0,1,.356-1.33c.183-.55-.176.25.036-.08.1-.161.216-.349.306-.518-.194.365-.176.2.043-.021a2.681,2.681,0,0,0,.213-.2c.123-.153-.451.232-.067.068.1-.043.6-.292.269-.161-.35.14.255-.067.351-.091.119-.029.238-.048.356-.076-.087.021-.528.04-.059.01.288-.019.574-.034.863-.03s.593.028.89.048c-.472-.031-.174-.024.092.04.178.042.351.116.529.155.378.085-.074-.029-.146-.068.111.06.227.11.337.171.154.085.294.193.447.277.337.185-.075-.054-.127-.1.073.068.155.127.227.2.126.124.255.245.375.376.068.075.127.165.2.232.2.182-.269-.415-.042-.054.215.342.438.671.626,1.031.09.172.17.349.255.524.058.119.146.414-.041-.1.049.135.105.267.155.4a18.473,18.473,0,0,1,.743,2.685c.087.424.162.851.228,1.279.02.13.112.931.044.284.026.246.059.491.086.737.206,1.933.267,3.876.331,5.817a2.4,2.4,0,0,0,4.8,0c-.139-4.207-.2-8.689-1.824-12.638a9.526,9.526,0,0,0-4.33-5.225,8.922,8.922,0,0,0-7.928.062c-2.633,1.5-3.236,4.529-3.548,7.29a2.414,2.414,0,0,0,2.4,2.4,2.457,2.457,0,0,0,2.4-2.4Z"></path>
        <path class="b"
            d="M36.4,184.213c-.046-.1-.089-.2-.135-.294-.208-.444.227.56.015.04q-.216-.531-.427-1.065c-.405-1.032-.8-2.069-1.185-3.107-.866-2.305-1.718-4.617-2.594-6.919-.775-2.039-1.625-4.038-2.476-6.046a38.8,38.8,0,0,0-4.117-7.952c-3.794-5.181-10.15-7.037-14.816-11.247-2.295-2.072-4.507-4.658-5.372-7.681a19.1,19.1,0,0,1,.328-9.849,23.9,23.9,0,0,1,4.6-9.136,26.132,26.132,0,0,1,3.374-3.522,10.786,10.786,0,0,1,1.368-1.008c.212-.133.43-.253.649-.374.136-.071.273-.138.413-.2q-.36.154.015.016l-2.953-1.676c.924,3.431,1.362,7.043,1.973,10.539.351,2.008.7,4.018,1.056,6.025a17.471,17.471,0,0,0,.337,1.835c.355,1.207,1.49,1.7,2.539,2.167a36.669,36.669,0,0,0,6.369,2.247,5.079,5.079,0,0,0,2.788.085,15.822,15.822,0,0,0,3.193-1.646c1.1-.663,2.173-1.366,3.226-2.1,1.089-.756,2.817-1.631,3.187-2.972a7.468,7.468,0,0,0,0-2.283c-.058-.975-.124-1.948-.191-2.922-.315-4.547-.623-9.1-1.078-13.638l-3.038,2.314c3.807.905,7.152,3.407,9.873,6.246a24.5,24.5,0,0,1,6.37,11.017c1.1,4.645-.706,9.384-2.456,13.738-1.074,2.672-2.554,5.34-3.178,8.161a17.038,17.038,0,0,0,.339,8.216c.757,2.778,1.944,5.431,2.862,8.158a79.455,79.455,0,0,0,3.37,8.755,2.422,2.422,0,0,0,3.284.861,2.453,2.453,0,0,0,.861-3.284,68.527,68.527,0,0,1-2.886-7.608c-.831-2.467-1.861-4.87-2.629-7.358a12.382,12.382,0,0,1-.21-7.771c.931-2.818,2.317-5.5,3.371-8.27,1.86-4.9,3.151-10,1.822-15.189A29.436,29.436,0,0,0,47.2,117.208c-3.317-3.611-7.628-6.841-12.471-7.991-1.38-.328-3.2.692-3.038,2.314.605,6.04,1.122,12.139,1.353,18.2l.7-1.7c-.2.16-.244.192-.578.437q-.572.418-1.155.819-1.111.768-2.254,1.487c-.737.464-1.482.918-2.248,1.332a6.86,6.86,0,0,0-.855.435c.119-.089.443-.059.443-.063s.2.052-.141-.039c-.142-.037-.288-.064-.431-.1-.33-.08-.657-.173-.983-.269-.8-.235-1.583-.5-2.363-.785a12.253,12.253,0,0,1-3.2-1.414l1.1,1.435c-.613-3.192-1.135-6.4-1.7-9.6-.514-2.92-.895-5.929-1.667-8.8a2.423,2.423,0,0,0-2.952-1.676,16.807,16.807,0,0,0-6.621,4.8A30.885,30.885,0,0,0,2.52,124.4c-2.99,6.777-3.886,15.317.485,21.689a30.132,30.132,0,0,0,7.149,7.243c2.691,1.976,5.7,3.427,8.447,5.3,2.465,1.676,4.009,4.375,5.264,7.006.693,1.452,1.3,2.94,1.935,4.419.137.32.273.641.414.959.233.527-.006-.027.038.079q.267.647.522,1.3c1.848,4.714,3.3,9.672,5.485,14.245a2.422,2.422,0,0,0,3.283.861,2.452,2.452,0,0,0,.861-3.284Z"></path>
        <path class="b"
            d="M105.566,270.236a77.155,77.155,0,0,1-4.118-6.721c-2.125-3.688-4.191-7.411-6.248-11.137-4.361-7.9-8.642-15.841-13.028-23.726a77.781,77.781,0,0,0-3.981-6.848,2.509,2.509,0,0,0-2.71-1.1,20.926,20.926,0,0,0-4.459,1.881c-2.438,1.173-4.841,2.417-7.237,3.672q-8.16,4.275-16.2,8.773c-1.9,1.058-3.8,2.11-5.667,3.23a2.441,2.441,0,0,0-1.1,2.71c2.524,8.082,5.817,15.962,9.077,23.768,4.411,10.559,9.061,21.043,14.316,31.212,2.393,4.63,4.8,9.283,7.365,13.821,2.614,4.631,5.729,9.092,9.934,12.418a28.924,28.924,0,0,0,16.918,6.4,27.089,27.089,0,0,0,16.442-5.355,47.909,47.909,0,0,0,12.4-13.677,101.7,101.7,0,0,0,8.892-16.978,2.419,2.419,0,0,0-1.676-2.952,2.453,2.453,0,0,0-2.953,1.676,90.793,90.793,0,0,1-7.6,14.506,50.25,50.25,0,0,1-9.03,11.26c-3.8,3.461-8.639,6.173-13.836,6.638a23.5,23.5,0,0,1-15.493-4.433c-4.052-2.839-6.979-6.947-9.424-11.178-2.463-4.262-4.7-8.678-6.992-13.034-5.047-9.589-9.506-19.492-13.734-29.465-3.6-8.493-7.224-17.09-9.977-25.9l-1.1,2.71c4-2.4,8.123-4.607,12.217-6.837,5.227-2.847,10.47-5.682,15.81-8.313,1.01-.5,2.026-.985,3.055-1.444.3-.134.622-.246.1-.047.172-.065.34-.14.512-.2a5.268,5.268,0,0,1,.726-.228l-2.71-1.1c1.258,1.8,2.273,3.795,3.343,5.707,1.972,3.525,3.909,7.069,5.848,10.613,4.417,8.07,8.794,16.166,13.356,24.155a87.873,87.873,0,0,0,4.827,7.957,2.468,2.468,0,0,0,3.284.861,2.418,2.418,0,0,0,.861-3.283Z"></path>
        <path class="b"
            d="M275.078,261.441c7.362,7.2,14.725,14.438,21.722,22,.713.769,1.42,1.544,2.109,2.335.258.3.514.6.764.9.119.145.234.292.352.436-.253-.31-.235-.311-.029-.025a2.47,2.47,0,0,0,3.284.861,2.419,2.419,0,0,0,.861-3.284,84.45,84.45,0,0,0-7.971-8.859c-3.941-4.084-7.947-8.106-11.973-12.106q-2.851-2.834-5.725-5.646c-2.21-2.161-5.607,1.23-3.394,3.394Z"></path>
        <path class="b"
            d="M312.611,281.8c1.339-.41,2.716-.7,4.065-1.067a36.873,36.873,0,0,0,5.8-2.078,2.412,2.412,0,0,0,.861-3.284,2.468,2.468,0,0,0-3.284-.861c-.207.1-.415.188-.624.281-.275.121.486-.2.077-.035l-.287.113c-.432.169-.869.326-1.308.475-.873.3-1.757.556-2.646.8-1.3.355-2.634.633-3.928,1.029a2.4,2.4,0,0,0,1.276,4.629Z"></path>
        <path class="b"
            d="M60.912,251.6c7.66-4.183,15.176-8.647,22.962-12.6a2.4,2.4,0,0,0-2.422-4.145c-7.786,3.949-15.3,8.413-22.963,12.6-2.712,1.481-.292,5.628,2.423,4.145Z"></path>
        <path class="b"
            d="M285.237,323.041c1.1.787,2.208,1.572,3.3,2.368q1.1.8,2.183,1.607.59.44,1.175.884c.391.3.724.552.929.712a75.435,75.435,0,0,1,9.24,8.18,2.4,2.4,0,1,0,3.394-3.394c-5.184-5.618-11.608-10.079-17.8-14.5a2.42,2.42,0,0,0-3.284.861,2.452,2.452,0,0,0,.861,3.284Z"></path>
        <path class="d"
            d="M235.454,168.078a49.235,49.235,0,0,0-5.718-4.162c-3.1,5.328-11.465,19.547-14.91,24.6.994.623,1.584,1,1.584,1,2.851,1.809,21.26,7.316,23.453,6.825.129-6.432.129-19.536-.1-23.865A26.03,26.03,0,0,0,235.454,168.078Z"></path>
        <path class="d"
            d="M170.6,170.282a47.325,47.325,0,0,1,7.584-6.025c1.81,4.241,7.569,14.2,9.34,17.327,1.237,2.181,2.854,4.948,4.623,7.889l-.094.044c-2.851,1.809-21.26,7.316-23.453,6.825-.129-6.432-.13-19.536.1-23.865A17.662,17.662,0,0,1,170.6,170.282Z"></path>
        <path class="c"
            d="M226.807,350.326a113.7,113.7,0,0,1,13.92-10.812l2.661-1.331c-4.786.022-11.047.006-14.131-.075-2.865-.075-7.437-.068-7.514-4.374a5.481,5.481,0,0,1,5.127-5.779c2.751-.089,9.274-.187,12.117-.187,3.537,0,9.869,0,13.144-.093,13.538-.368,22.064,3.132,32.354,12.393l15.223,13.7v3.291c0,3.632-6.271,9.931-12.571,10.4-6.227.461-10.323-1.917-15.027-4.017a9.66,9.66,0,0,0-6.653-.365c-2.553.745-5.223,3.508-7.33,4.9-3.056,2.018-8.188,5.709-12.109,7.092-1.433.506-4.669-.132-6.036-.878a4.346,4.346,0,0,1-.849-6.614c-2.258,1.6-5.52,1.963-7.6-.843a5.474,5.474,0,0,1,2.051-8.1c-2.519,2-5.395.791-6.877-1.15-1.42-1.859-1.4-6,.1-7.159"></path>
        <path class="b"
            d="M277.048,331.361a42.1,42.1,0,0,0-20.375-6.053c-3.473-.157-6.964.024-10.44.044-3.012.018-6.025,0-9.037.025q-4.566.036-9.133.144a9.873,9.873,0,0,0-4.575.93,7.781,7.781,0,0,0-3.386,3.691c-1.385,3.111-.905,7.035,2.138,8.952,2.21,1.393,5.029,1.371,7.551,1.427,6.168.135,12.349.117,18.518.025,3.086-.046,3.095-4.846,0-4.8-5.051.076-10.106.067-15.158.022-2.121-.019-4.285.038-6.4-.183a7.2,7.2,0,0,1-1.173-.237,2.554,2.554,0,0,1-.969-.424,1,1,0,0,1-.346-.474,3.129,3.129,0,0,1-.074-1.486,3.213,3.213,0,0,1,1.724-2.376,7.906,7.906,0,0,1,3-.287q4.214-.093,8.428-.125c5.734-.043,11.483-.174,17.216-.124a38.21,38.21,0,0,1,20.069,5.454c2.641,1.619,5.055-2.531,2.422-4.145Z"></path>
        <path class="b"
            d="M239.516,337.441a32.357,32.357,0,0,0-4.2,2.887q-3.276,2.427-6.439,5.005c-1.593,1.3-3.763,2.74-4.762,4.586a9.123,9.123,0,0,0,.37,8.562,7.273,7.273,0,0,0,10.313,2.227c2.446-1.79.348-5.659-2.423-4.145a7.976,7.976,0,0,0-3.211,10.928c2.407,4.013,7.433,4.692,11.185,2.156l-2.908-3.769a6.851,6.851,0,0,0-.885,8.165c1.477,2.461,4.259,3.225,6.944,3.528,2.844.32,5.288-.952,7.708-2.307,2.547-1.427,4.953-3.085,7.375-4.709,2.21-1.482,4.156-3.416,6.485-4.709,2.688-1.493,5.353-.562,7.921.621,5.433,2.5,11.581,4.691,17.569,2.741a19.59,19.59,0,0,0,7.921-5.015c1.853-1.922,3.547-4.377,3.634-7.133.1-3.09-4.7-3.087-4.8,0-.021.655.145-.475-.015.209-.036.152-.078.3-.123.45a3.986,3.986,0,0,1-.4.853,10.834,10.834,0,0,1-1.695,2.227,14.815,14.815,0,0,1-5.293,3.6c-4.7,1.779-9.712.064-14.037-1.921-2.571-1.18-5.021-2.362-7.933-2.208a13.023,13.023,0,0,0-7.4,2.939,95.127,95.127,0,0,1-12.147,8.192,14.6,14.6,0,0,1-3.058,1.418,7.839,7.839,0,0,1-3.111-.377c-.813-.236-1.217-.338-1.541-1.066a1.92,1.92,0,0,1,.274-2.106c1.725-1.924-.533-5.374-2.909-3.769-1.579,1.067-3.463,1.412-4.618-.434a3.138,3.138,0,0,1,1.49-4.361l-2.423-4.145c-2.356,1.723-4.293-.449-4.309-2.765a4.312,4.312,0,0,1,.235-1.552c.016-.051.259-.252.048-.082.154-.125.287-.27.431-.406.805-.756,1.633-1.483,2.478-2.193,1.994-1.673,4.046-3.278,6.133-4.834a34.488,34.488,0,0,1,4.553-3.145c2.743-1.422.319-5.566-2.423-4.145Z"></path>
        <path class="b"
            d="M251.7,342.164c-6.752,4.719-13.3,9.732-19.812,14.774a2.412,2.412,0,0,0,0,3.394,2.461,2.461,0,0,0,3.394,0c1.116-.864,2.56-1.975,3.9-3q2.456-1.876,4.926-3.732c3.305-2.48,6.633-4.929,10.02-7.3a2.464,2.464,0,0,0,.861-3.284,2.421,2.421,0,0,0-3.284-.861Z"></path>
        <path class="b"
            d="M257.787,350.97c-6.815,4.559-13.235,9.713-19.866,14.533a2.471,2.471,0,0,0-.861,3.283,2.418,2.418,0,0,0,3.284.861c6.631-4.819,13.05-9.973,19.866-14.532a2.458,2.458,0,0,0,.861-3.284,2.424,2.424,0,0,0-3.284-.861Z"></path>
        <path class="b"
            d="M175.715,164.542c2.24,5.457,5.366,10.585,8.278,15.7,3.182,5.589,6.431,11.136,9.849,16.585,2.095,3.339,4.229,6.662,6.549,9.849a2.47,2.47,0,0,0,3.284.861,2.417,2.417,0,0,0,.861-3.283c-7.558-10.384-13.9-21.759-20.083-33-.842-1.532-1.674-3.07-2.475-4.623-.335-.65-.665-1.3-.983-1.962-.155-.32-.308-.641-.455-.964-.045-.1-.089-.2-.134-.3-.283-.624.173.432-.063-.142a2.477,2.477,0,0,0-2.952-1.677,2.415,2.415,0,0,0-1.676,2.953Z"></path>
        <path class="b"
            d="M227.671,162.692c-3.353,5.757-6.742,11.5-10.214,17.181-2.905,4.757-6.022,9.317-9.221,13.877-2.077,2.96-4.147,5.925-6.248,8.868a2.421,2.421,0,0,0,.861,3.284,2.452,2.452,0,0,0,3.284-.861c3.469-4.861,6.879-9.765,10.309-14.654,3.687-5.255,6.88-10.888,10.155-16.4q2.628-4.425,5.219-8.87c1.558-2.674-2.589-5.093-4.145-2.423Z"></path>
        <path class="b"
            d="M176.853,162.259a41.5,41.5,0,0,0-9.132,7.6,4.672,4.672,0,0,0-1.422,2.62c-.039.446-.041.9-.056,1.347-.044,1.275-.066,2.551-.085,3.826q-.133,9.343.037,18.692a2.432,2.432,0,0,0,1.762,2.314,13.3,13.3,0,0,0,5.251-.556c2.479-.557,4.932-1.238,7.369-1.954,2.535-.745,5.059-1.536,7.55-2.416a26.714,26.714,0,0,0,5.133-2.141c2.624-1.619.216-5.773-2.423-4.145a7.651,7.651,0,0,1-.679.366c-.173.084-.35.159-.525.24-.459.214.422-.168-.041.019-.905.366-1.82.707-2.741,1.032-2.4.849-4.835,1.615-7.279,2.337-2.35.694-4.713,1.352-7.1,1.909-.892.209-1.786.389-2.687.554-.184.034-.794.068-.025.012-.145.01-.289.041-.435.044-.331.008-1.079-.115-.093.071L171,196.342c-.155-7.934-.308-15.937.1-23.865l-.327,1.211c2.074-2.877,5.488-5.323,8.5-7.285,2.58-1.678.177-5.836-2.422-4.144Z"></path>
        <path class="b"
            d="M229.183,166.4c3.016,1.963,6.428,4.407,8.5,7.285l-.327-1.211c.412,7.928.259,15.931.1,23.865l1.762-2.314c.974-.184.285-.063-.037-.067-.164,0-.327-.036-.491-.048.74.056.235.034.055,0-.891-.16-1.775-.337-2.657-.541-2.423-.562-4.823-1.23-7.209-1.935-2.406-.711-4.8-1.465-7.167-2.3-.931-.328-1.851-.679-2.77-1.038-.591-.232.289.136-.124-.053-.155-.07-.311-.137-.464-.211a8.077,8.077,0,0,1-.74-.4c-2.636-1.626-5.05,2.524-2.423,4.145a26.714,26.714,0,0,0,5.133,2.141c2.491.88,5.015,1.671,7.55,2.416,2.437.716,4.889,1.4,7.368,1.954a13.307,13.307,0,0,0,5.252.556,2.421,2.421,0,0,0,1.762-2.314q.183-9.342.037-18.692c-.019-1.275-.042-2.551-.085-3.826-.015-.448-.017-.9-.056-1.347a4.627,4.627,0,0,0-1.422-2.62,41.527,41.527,0,0,0-9.132-7.6c-2.6-1.69-5,2.464-2.422,4.144Z"></path>
        <path class="b"
            d="M281.357,196.564a53.26,53.26,0,0,1,12.466,9.212A161.955,161.955,0,0,1,307.491,220.7c9.331,11.328,17.593,23.437,26.348,35.2a130.613,130.613,0,0,1,9.665,14.337,38.467,38.467,0,0,1,3.324,7.5,15.581,15.581,0,0,1,.739,6.33c-.881,5.892-3.46,11.58-6.152,16.839a126.755,126.755,0,0,1-9.911,16.21c-4.194,5.833-8.649,11.5-13.013,17.211a206.928,206.928,0,0,1-14.266,17.121q-1.776,1.866-3.642,3.641l2.909-.375c-9.034-6.868-16.641-15.453-25.364-22.695l.375,2.909c3.1-6.39,6.644-12.574,10.076-18.787,3.9-7.062,7.852-14.1,11.583-21.255a73.314,73.314,0,0,0,3.773-7.927A2.419,2.419,0,0,0,302.259,284a2.453,2.453,0,0,0-2.952,1.676c-.067.176-.138.349-.206.524-.171.442.245-.555.042-.1-.038.085-.073.17-.112.254-.242.535-.486,1.068-.74,1.6-.591,1.234-1.211,2.454-1.839,3.669-1.7,3.283-3.459,6.531-5.231,9.773-4.007,7.334-8.1,14.622-12.082,21.968-1.638,3.02-3.28,6.045-4.78,9.137a2.454,2.454,0,0,0,.375,2.908c9.044,7.509,16.964,16.321,26.335,23.445a2.413,2.413,0,0,0,2.909-.375c11.173-10.624,19.921-23.57,29.276-35.742a128.373,128.373,0,0,0,10.351-15.757,81.49,81.49,0,0,0,7.794-18.018,21.821,21.821,0,0,0,.966-7.946,28.729,28.729,0,0,0-2.3-8.3,81.42,81.42,0,0,0-9.362-15.555c-8.554-11.811-16.994-23.74-26.042-35.18A206.142,206.142,0,0,0,300.39,205.5a75.5,75.5,0,0,0-13.454-11.3q-1.534-.965-3.156-1.778c-2.755-1.379-5.189,2.761-2.423,4.144Z"></path>
        <path class="b"
            d="M257.045,223.343c-7.882.039-15.765.12-23.647.185q-2.718.024-5.438.044c-1.678.012-3.6-.209-5.2.338a5.122,5.122,0,0,0-2.729,2.166,6.406,6.406,0,0,0-.608,3.657q.041,1.842.084,3.684a8.054,8.054,0,0,0,.638,4.012c1.778,3.086,5.573,2.556,8.595,2.544q5-.019,10.007-.048,5.432-.029,10.862-.055a71.433,71.433,0,0,0,8.149-.086,4.984,4.984,0,0,0,4.49-4.779c.051-1.173,0-2.359,0-3.533,0-1.1.045-2.218,0-3.321-.118-2.88-2.454-4.674-5.2-4.808-3.088-.15-3.08,4.651,0,4.8.574.028.4.042.4.653v3.291a10.664,10.664,0,0,1,0,2.788c-.076.237-.006.081.011.067-.244.2-.8.1-1.107.1-5.5.007-11,.043-16.492.072q-4.489.024-8.98.045c-2.039.009-4.115-.088-6.148.035-.491.03-.384-.094-.4-.416-.052-1.226-.052-2.457-.08-3.684a10.337,10.337,0,0,1-.07-2.632,3.738,3.738,0,0,1,.849-.075c3.02.008,6.041-.044,9.06-.069,7.651-.065,15.3-.142,22.954-.18C260.133,228.128,260.139,223.328,257.045,223.343Z"></path>
        <path class="b"
            d="M221.052,245.361c.007,4.494.12,8.988.164,13.481.024,2.516,0,5.033.028,7.549a5.352,5.352,0,0,0,2.47,4.655,8.088,8.088,0,0,0,4.376.77l18.22.021,8.493.009a6.539,6.539,0,0,0,4.384-1.14,5.569,5.569,0,0,0,1.955-4.815c-.159-6.629-.541-13.261-.552-19.892,0-3.088-4.8-3.094-4.8,0,.009,5.34.281,10.682.444,16.018.042,1.386.107,2.776.114,4.163.006.914-.183.867-1.064.867l-7.444-.008-17.26-.02-3.353,0c-.851,0-1.146.134-1.182-.73-.093-2.262,0-4.547-.023-6.812-.043-4.7-.163-9.409-.17-14.113,0-3.088-4.805-3.094-4.8,0Z"></path>
        <path class="b"
            d="M183.679,223.729c-7.882.119-15.763.287-23.644.437l-5.581.1c-1.763.031-3.779-.2-5.41.563-2.648,1.234-3.013,3.771-2.944,6.334q.429,15.956.863,31.91c.043,1.619.077,3.237.129,4.855a5.847,5.847,0,0,0,1.372,3.917c1.438,1.592,3.344,1.706,5.335,1.645q11.451-.351,22.9-.661,2.794-.072,5.59-.135c1.992-.043,3.991-.036,5.486-1.586,1.361-1.413,1.493-3.111,1.477-4.917l-.12-12.85-.156-16.66-.054-5.79a13.712,13.712,0,0,0-.184-3.278,5.314,5.314,0,0,0-5.062-3.888c-3.089-.132-3.082,4.668,0,4.8.633.028.434,1.065.439,1.615l.043,4.59.14,15.053.13,13.944c.011,1.133.073,2.279.032,3.411-.008.226.032.463-.07.582-.255.3-1.022.152-1.418.16q-1.213.025-2.427.054c-7.409.173-14.817.4-22.226.618l-4.405.134c-.7.021-1.795.343-2.014-.338a5.375,5.375,0,0,1-.034-1.313l-.06-2.249q-.412-15.423-.834-30.847c-.036-1.348-.131-2.71-.109-4.059.012-.725.142-.755.925-.768q2.31-.037,4.62-.082c7.585-.14,15.169-.3,22.754-.43q2.257-.041,4.514-.075C186.765,228.483,186.774,223.683,183.679,223.729Z"></path>
        <path class="b"
            d="M149.668,245.835a99.023,99.023,0,0,0,17.585,9.079,89.62,89.62,0,0,0,17.948,5.527,2.469,2.469,0,0,0,2.953-1.677,2.421,2.421,0,0,0-1.677-2.952,88.857,88.857,0,0,1-17.569-5.372,93.522,93.522,0,0,1-16.817-8.75c-2.574-1.724-4.979,2.432-2.423,4.145Z"></path>
        <path class="b"
            d="M259.362,91.649a5.529,5.529,0,0,1,7.94.95,9.241,9.241,0,0,1,1.07,4.764,28.79,28.79,0,0,1-.343,6.074c-1.213,7.095-4.952,15.746-12.856,17.1a2.421,2.421,0,0,0-1.676,2.953,2.455,2.455,0,0,0,2.952,1.676c8.182-1.406,13.037-9.133,15.276-16.51a33.992,33.992,0,0,0,1.409-11.969c-.257-3.964-1.455-7.692-5.11-9.755a10.548,10.548,0,0,0-12.056,1.32,2.421,2.421,0,0,0,0,3.394,2.45,2.45,0,0,0,3.394,0Z"></path>
        <path class="b"
            d="M253.328,116.867a26.98,26.98,0,0,1-1.277,6.812c-.256.859-.538,1.709-.823,2.558-.077.23-.151.462-.235.689-.066.178-.365.846-.056.157a53.99,53.99,0,0,1-3.589,6.574,64.05,64.05,0,0,1-14.3,16.494,27.256,27.256,0,0,1-10.6,5.367c-3.009.691-1.736,5.32,1.276,4.628,8.057-1.852,14.8-7.664,20.11-13.744A69.38,69.38,0,0,0,254.9,129.917a35.152,35.152,0,0,0,3.23-13.05c.1-3.089-4.7-3.086-4.8,0Z"></path>
        <path class="b"
            d="M151.433,88.255a10.507,10.507,0,0,0-10.626-1.982c-3.935,1.552-5.9,4.863-6.4,8.937a32.984,32.984,0,0,0,5.773,22.806,17.241,17.241,0,0,0,10.774,7.153,2.47,2.47,0,0,0,2.952-1.676,2.421,2.421,0,0,0-1.676-2.953c-7.9-1.357-11.643-10.008-12.856-17.1a28.712,28.712,0,0,1-.351-5.85c.06-1.655.134-3.559,1.078-4.988a5.525,5.525,0,0,1,7.94-.95,2.463,2.463,0,0,0,3.394,0,2.421,2.421,0,0,0,0-3.394Z"></path>
        <path class="b"
            d="M149.6,116.09c2.927,16.889,12.08,33.418,27.729,41.568a37.556,37.556,0,0,0,13.577,4.062,2.415,2.415,0,0,0,2.4-2.4,2.454,2.454,0,0,0-2.4-2.4c-16.137-1.672-28.71-16.144-33.779-30.682a72.118,72.118,0,0,1-2.9-11.425,2.42,2.42,0,0,0-2.952-1.676,2.456,2.456,0,0,0-1.677,2.953Z"></path>
        <path class="d"
            d="M258.979,30.862C246.5,12.377,223.744,2.4,203.7,2.4c-24.847,0-61.28,19.471-64.476,54.4-.579,6.318-1.069,20.333.887,27.293,1.091.464,1.977.844,1.977.844,4.68,2.01,21.163-4.531,29.484-6.531,8.722-2.1,21.676-4.729,32.139-4.509,10.456-.217,23.4,2.413,32.12,4.509,8.321,2,24.8,8.541,29.484,6.531,0,0,.886-.38,1.977-.844,1.956-6.96,1.466-20.975.887-27.293A54.774,54.774,0,0,0,258.979,30.862Z"></path>
        <path class="b"
            d="M142.841,84.724c-1.277-3.429-1.466-7.086-1.626-10.711-.184-4.167-.125-8.348.085-12.513.387-7.707,1.823-15.161,5.312-22.107,6.816-13.574,19.458-23.778,33.28-29.463A73.5,73.5,0,0,1,190.2,6.546a57.082,57.082,0,0,1,9.6-1.594,61.158,61.158,0,0,1,21,2.226c14.872,4.09,28.743,13.181,37.054,26.353A52.788,52.788,0,0,1,265.778,56.8c.7,7.605,1,15.771-.1,23.247a22.97,22.97,0,0,1-1.117,4.68,2.421,2.421,0,0,0,1.676,2.952A2.452,2.452,0,0,0,269.189,86c1.359-3.651,1.6-7.785,1.781-11.641.209-4.381.145-8.779-.084-13.158a63.4,63.4,0,0,0-5.953-24.833c-7.395-15.183-21.446-26.223-37.106-31.976A70.761,70.761,0,0,0,204.569.005,64.431,64.431,0,0,0,183.436,3.51c-15.258,5.083-29.39,14.856-38.145,28.508a55.234,55.234,0,0,0-8.4,24.089,102,102,0,0,0,.183,25.066A23.576,23.576,0,0,0,138.213,86a2.466,2.466,0,0,0,2.952,1.676,2.418,2.418,0,0,0,1.676-2.952Z"></path>
        <path class="b"
            d="M203.7,48.137c-10.093-.456-20.463,2.83-29.71,6.566-9.367,3.785-18.375,8.484-25.617,15.655-3.953,3.913-8.064,8.842-8.687,14.576a2.442,2.442,0,0,0,1.762,2.315c2.709,1.091,6.234.264,8.959-.315,3.909-.83,7.738-2.024,11.553-3.2a184.85,184.85,0,0,1,24.821-6,101.412,101.412,0,0,1,30.029-.574,159.064,159.064,0,0,1,25.762,5.684c4.341,1.343,8.673,2.753,13.1,3.8,3.076.725,7.191,1.857,10.28.612a2.464,2.464,0,0,0,1.762-2.315c-.545-5.013-3.785-9.332-7.1-12.937A56.735,56.735,0,0,0,248.253,61.95a106.2,106.2,0,0,0-28.2-11.691A56.108,56.108,0,0,0,203.7,48.137c-3.077.139-3.094,4.94,0,4.8,9.328-.421,18.828,2.614,27.406,5.985,8.526,3.351,16.9,7.608,23.606,13.94a38.484,38.484,0,0,1,5.766,6.623,20.318,20.318,0,0,1,1.736,3.093,12.887,12.887,0,0,1,.447,1.274c.048.167.093.336.134.5.021.092.166,1.02.118.577l1.762-2.314a5.75,5.75,0,0,1-.652.209c-.135.036-.275.055-.413.079.082-.014.549-.045.1-.024a15.527,15.527,0,0,1-1.893-.015,32.4,32.4,0,0,1-4.57-.791c-3.938-.909-7.8-2.129-11.656-3.327a174.676,174.676,0,0,0-24.53-5.784,105.878,105.878,0,0,0-30.671-.585,159.205,159.205,0,0,0-25.755,5.5c-4.358,1.337-8.7,2.761-13.12,3.872-.979.246-1.963.475-2.952.674-.769.154-1.894.341-2.265.379a15.653,15.653,0,0,1-2.218.1c-.16-.006-.32-.022-.48-.03-.219-.012.468.138-.061-.013a7.811,7.811,0,0,1-.813-.243l1.762,2.314c-.039.357.133-.641.182-.828a11.529,11.529,0,0,1,.422-1.3,18.736,18.736,0,0,1,1.459-2.749,34.463,34.463,0,0,1,4.626-5.714,53.144,53.144,0,0,1,11.163-8.709A102.63,102.63,0,0,1,188.977,54.8a50.877,50.877,0,0,1,14.724-1.86C206.789,53.077,206.782,48.276,203.7,48.137Z"></path>
        <path class="b"
            d="M194.337,133.114a21.255,21.255,0,0,0,10.236,2.364c3.642-.024,7.35-.729,10.271-3a2.413,2.413,0,0,0,0-3.394,2.46,2.46,0,0,0-3.394,0c.71-.554.094-.085-.088.031-.208.134-.423.257-.642.372-.152.08-.905.394-.307.166-.294.112-.586.226-.886.322a15.262,15.262,0,0,1-5.288.707A15.882,15.882,0,0,1,199.2,130c-.325-.1-.641-.213-.961-.323-.1-.035-.205-.089-.31-.12.59.173.169.075.012,0-.4-.187-.788-.382-1.177-.588a2.451,2.451,0,0,0-3.283.861,2.426,2.426,0,0,0,.861,3.284Z"></path>
        <path class="b"
            d="M203.489,108.823a48.6,48.6,0,0,1,1.147,5.248l-.085-.638a3.2,3.2,0,0,1,.019.725l.086-.638a1.734,1.734,0,0,1-.08.325l.242-.573a1.225,1.225,0,0,1-.115.21l.376-.486a1.145,1.145,0,0,1-.172.169l.486-.375a3.442,3.442,0,0,1-.416.22l.574-.242a3.062,3.062,0,0,1-.7.2l.638-.086a2.733,2.733,0,0,1-.658,0l.638.086c-.248-.035-.491-.095-.739-.128a2.644,2.644,0,0,0-1.849.242,2.4,2.4,0,0,0-.861,3.283,2.3,2.3,0,0,0,1.434,1.1c.538.073,1.061.211,1.609.235a5.085,5.085,0,0,0,2.338-.552,3.308,3.308,0,0,0,1.854-2.19,5.61,5.61,0,0,0-.025-2.392c-.286-1.691-.676-3.367-1.111-5.025a2.4,2.4,0,0,0-4.629,1.276Z"></path>
        <path class="b"
            d="M175.458,94.037c-.876,2.848-.305,9.4,5.091,9.958,7.131-.043,7.511-7.964,5.11-11.689C183.694,89.257,177.914,87.989,175.458,94.037Z"></path>
        <path class="b"
            d="M232.568,94.037c.877,2.849.306,9.4-5.09,9.958-7.132-.043-7.511-7.964-5.111-11.689C224.333,89.257,230.112,87.989,232.568,94.037Z"></path>
    </g>
</svg>