<svg height="200px" width="200px" version="1.1" id="Layer_1" xmlns="http://www.w3.org/2000/svg"
    xmlns:xlink="http://www.w3.org/1999/xlink" viewBox="0 0 489.6 489.6" xml:space="preserve"
    fill="#000000"><g id="SVGRepo_bgCarrier" stroke-width="0"></g><g id="SVGRepo_tracerCarrier" stroke-linecap="round" stroke-linejoin="round"></g><g id="SVGRepo_iconCarrier"> <path style="fill:#f7941d;" d="M387.2,95.2c-13.6,0-28-14.4-28-28v-64h-232c-6.8,0-20,7.6-20,14v395.6c0,6.8,13.2,14.4,20,14.4 h313.6c6.4,0,6.4-7.6,6.4-14.4V95.2H387.2z"></path> <path style="fill:#f7941d;" d="M359.2,4v1.2v62c0,11.6,16.4,28,28,28h63.2L359.2,4z"></path> <path style="fill:#FFDAB9;" d="M319.2,152.4c-13.6,0-28-14-28-27.6V60.4h-232c-6.8,0-20,8-20,14.4v387.6c0,6.8,13.2,22,20,22h313.6 c6.4,0,6.4-15.2,6.4-22v-310H319.2z"></path> <path style="fill:#f7941d;" d="M292,60.4v1.2v62c0,11.6,16.4,27.6,28,27.6h63.2L292,60.4z"></path> <path d="M99.2,207.2h-20c-2.4,0-4-1.6-4-4s1.6-4,4-4h20c2.4,0,4,1.6,4,4S101.6,207.2,99.2,207.2z"></path> <path d="M351.2,207.2h-216c-2.4,0-4-1.6-4-4s1.6-4,4-4h216c2.4,0,4,1.6,4,4S353.6,207.2,351.2,207.2z"></path> <path d="M351.2,247.2h-60c-2.4,0-4-1.6-4-4s1.6-4,4-4h60c2.4,0,4,1.6,4,4S353.6,247.2,351.2,247.2z"></path> <path d="M255.2,247.2h-176c-2.4,0-4-1.6-4-4s1.6-4,4-4h176c2.4,0,4,1.6,4,4S257.6,247.2,255.2,247.2z"></path> <path d="M351.2,287.2h-272c-2.4,0-4-1.6-4-4s1.6-4,4-4h272c2.4,0,4,1.6,4,4S353.6,287.2,351.2,287.2z"></path> <path d="M351.2,407.2h-272c-2.4,0-4-1.6-4-4s1.6-4,4-4h272c2.4,0,4,1.6,4,4S353.6,407.2,351.2,407.2z"></path> <path d="M99.2,327.2h-20c-2.4,0-4-1.6-4-4s1.6-4,4-4h20c2.4,0,4,1.6,4,4S101.6,327.2,99.2,327.2z"></path> <path d="M351.2,327.2h-216c-2.4,0-4-1.6-4-4s1.6-4,4-4h216c2.4,0,4,1.6,4,4S353.6,327.2,351.2,327.2z"></path> <path d="M351.2,367.2h-60c-2.4,0-4-1.6-4-4s1.6-4,4-4h60c2.4,0,4,1.6,4,4S353.6,367.2,351.2,367.2z"></path> <path d="M255.2,367.2h-176c-2.4,0-4-1.6-4-4s1.6-4,4-4h176c2.4,0,4,1.6,4,4S257.6,367.2,255.2,367.2z"></path> <path d="M99.2,447.2h-20c-2.4,0-4-1.6-4-4s1.6-4,4-4h20c2.4,0,4,1.6,4,4S101.6,447.2,99.2,447.2z"></path> <path d="M351.2,447.2h-216c-2.4,0-4-1.6-4-4s1.6-4,4-4h216c2.4,0,4,1.6,4,4S353.6,447.2,351.2,447.2z"></path> <path d="M415.2,143.2h-40c-2.4,0-4-1.6-4-4s1.6-4,4-4h40c2.4,0,4,1.6,4,4S417.6,143.2,415.2,143.2z"></path> <path d="M415.2,183.2h-28c-2.4,0-4-1.6-4-4s1.6-4,4-4h28c2.4,0,4,1.6,4,4S417.6,183.2,415.2,183.2z"></path> <path d="M415.2,223.2h-28c-2.4,0-4-1.6-4-4s1.6-4,4-4h28c2.4,0,4,1.6,4,4S417.6,223.2,415.2,223.2z"></path> <path d="M415.2,343.2h-24c-2.4,0-4-1.6-4-4s1.6-4,4-4h24c2.4,0,4,1.6,4,4S417.6,343.2,415.2,343.2z"></path> <path d="M415.2,263.2h-28c-2.4,0-4-1.6-4-4s1.6-4,4-4h28c2.4,0,4,1.6,4,4S417.6,263.2,415.2,263.2z"></path> <path d="M415.2,303.2h-28c-2.4,0-4-1.6-4-4s1.6-4,4-4h28c2.4,0,4,1.6,4,4S417.6,303.2,415.2,303.2z"></path> <path d="M415.2,383.2h-28c-2.4,0-4-1.6-4-4s1.6-4,4-4h28c2.4,0,4,1.6,4,4S417.6,383.2,415.2,383.2z"></path> <path d="M431.2,433.2h-48c-2.4,0-4-1.6-4-4s1.6-4,4-4h48c5.2,0,10-4.4,10-9.6V94.8L353.6,8H122c-5.2,0-8.8,4-8.8,9.6v42.8 c0,2.4-1.6,4-4,4s-4-1.6-4-4V17.6c0-10,7.6-17.6,16.8-17.6h233.2c1.2,0,2,0.4,2.8,1.2l90,89.2c0.8,0.8,1.2,1.6,1.2,2.8v322 C449.2,425.2,441.2,433.2,431.2,433.2z"></path> <path d="M414.4,97.2h-32.8C367.2,97.2,352,82,352,66.8V7.2c0-2.4,1.6-4,4-4s4,1.6,4,4v59.6c0,10.4,11.2,22.4,21.6,22.4h32.8 c2.4,0,4,1.6,4,4S416.4,97.2,414.4,97.2z"></path> <path d="M365.2,489.6H56c-9.6,0-16.8-7.6-16.8-17.6V74.4c0-10,7.6-17.6,16.8-17.6h233.2c1.2,0,2,0.4,2.8,1.2l90,89.2 c0.8,0.8,1.2,1.6,1.2,2.8v322.4C383.2,481.6,375.2,489.6,365.2,489.6z M56,64.4c-5.2,0-8.8,4-8.8,9.6v397.6c0,5.6,3.6,9.6,8.8,9.6 h309.2c5.2,0,10-4.4,10-9.6V151.2l-87.6-86.8H56z"></path> <path d="M348.4,153.6h-32.8c-14.4,0-29.6-15.2-29.6-30.4V63.6c0-2.4,1.6-4,4-4s4,1.6,4,4v59.6c0,10.4,11.2,22.4,21.6,22.4h32.8 c2.4,0,4,1.6,4,4S350.4,153.6,348.4,153.6z"></path> </g></svg>