<!DOCTYPE svg PUBLIC "-//W3C//DTD SVG 1.1//EN" "http://www.w3.org/Graphics/SVG/1.1/DTD/svg11.dtd">
<!-- Uploaded to: SVG Repo, www.svgrepo.com, Transformed by: SVG Repo Mixer Tools -->
<svg height="800px" width="800px" version="1.1" id="Layer_1" xmlns="http://www.w3.org/2000/svg" xmlns:xlink="http://www.w3.org/1999/xlink" viewBox="0 0 511.98 511.98" xml:space="preserve" fill="#000000" stroke="#000000">
<g id="SVGRepo_bgCarrier" stroke-width="0"/>
<g id="SVGRepo_tracerCarrier" stroke-linecap="round" stroke-linejoin="round"/>
<g id="SVGRepo_iconCarrier"> <polygon style="fill:#E6E9ED;" points="388.385,70.247 324.388,6.25 318.138,0 309.328,0 31.986,0 10.659,0 10.659,21.343 10.659,490.669 10.659,511.98 31.986,511.98 373.324,511.98 394.635,511.98 394.635,490.669 394.635,85.34 394.635,76.497 "/> <g> <path style="fill:#434A54;" d="M85.328,298.676h234.654c5.875,0,10.656-4.781,10.656-10.687c0-5.875-4.781-10.656-10.656-10.656 H85.328c-5.906,0-10.671,4.781-10.671,10.656C74.658,293.894,79.423,298.676,85.328,298.676z"/> <path style="fill:#434A54;" d="M319.983,341.331H85.328c-5.906,0-10.671,4.781-10.671,10.655c0,5.906,4.765,10.688,10.671,10.688 h234.654c5.875,0,10.656-4.781,10.656-10.688C330.638,346.112,325.858,341.331,319.983,341.331z"/> <path style="fill:#434A54;" d="M202.652,405.327H85.328c-5.906,0-10.671,4.781-10.671,10.656c0,5.906,4.765,10.688,10.671,10.688 h117.323c5.891,0,10.672-4.781,10.672-10.688C213.324,410.108,208.542,405.327,202.652,405.327z"/> </g> <polygon style="fill:#E6E9ED;" points="472.82,341.112 444.478,341.112 415.979,440.671 458.634,469.106 501.319,440.671 "/> <path style="fill:#656D78;" d="M458.634,63.779c-23.562,0-42.655,19.093-42.655,42.654v287.989h85.341V106.433 C501.319,82.872,482.194,63.779,458.634,63.779z"/> <polygon style="fill:#CCD1D9;" points="394.635,76.497 318.138,76.497 318.138,0 "/> <path style="fill:#ffffffff;" d="M191.997,223.991h-85.341c-5.891,0-10.656-4.781-10.656-10.671v-22.608 c-13.499-13.89-21.154-32.592-21.154-52.061c0-41.17,33.498-74.653,74.668-74.653c41.171,0,74.669,33.483,74.669,74.653 c0,19.671-7.797,38.515-21.53,52.436v22.233C202.652,219.21,197.87,223.991,191.997,223.991z"/> <path style="fill:#fffff;" d="M149.512,202.648c-5.89,0-10.671,4.781-10.671,10.671v10.671h21.343v-10.67 C160.185,207.429,155.404,202.648,149.512,202.648z"/> <g> <path style="fill:#434A54;" d="M138.654,138.651c0,5.891-4.781,10.672-10.656,10.672c-5.906,0-10.671-4.781-10.671-10.672 s4.765-10.656,10.671-10.656C133.874,127.995,138.654,132.76,138.654,138.651z"/> <path style="fill:#434A54;" d="M181.325,138.651c0,5.891-4.781,10.672-10.671,10.672c-5.891,0-10.656-4.781-10.656-10.672 s4.766-10.656,10.656-10.656C176.544,127.995,181.325,132.76,181.325,138.651z"/> </g> </g>
</svg>