<!DOCTYPE svg PUBLIC "-//W3C//DTD SVG 1.1//EN" "http://www.w3.org/Graphics/SVG/1.1/DTD/svg11.dtd">
<!-- Uploaded to: SVG Repo, www.svgrepo.com, Transformed by: SVG Repo Mixer Tools -->
<svg height="800px" width="800px" version="1.1" id="Layer_1" xmlns="http://www.w3.org/2000/svg" xmlns:xlink="http://www.w3.org/1999/xlink" viewBox="0 0 392.598 392.598" xml:space="preserve" fill="#000000">
<g id="SVGRepo_bgCarrier" stroke-width="0"/>
<g id="SVGRepo_tracerCarrier" stroke-linecap="round" stroke-linejoin="round"/>
<g id="SVGRepo_iconCarrier"> <path style="fill:#FFFFFF;" d="M329.502,95.741h-63.03c-6.012,0-10.925-4.848-10.925-10.925v-63.03H63.158v348.962h266.214V95.741 H329.502z"/> <path style="fill:#ffff;" d="M252.831,43.572H85.073v305.325h222.578V98.392l-2.65-2.651h-38.529 c-6.012,0-10.925-4.848-10.925-10.925V46.287L252.831,43.572z"/> <path style="fill:#ff;" d="M347.991,77.123L274.164,3.168C272.16,1.164,269.381,0,266.407,0H52.298 c-6.012,0-10.925,4.848-10.925,10.925v370.747c0,6.012,4.848,10.925,10.925,10.925h288c6.012,0,10.925-4.848,10.925-10.925V84.816 C351.288,81.972,350.124,79.192,347.991,77.123z M277.332,37.236l36.719,36.719h-36.719V37.236z M329.502,370.747H63.158V21.786 h192.259v63.03c0,6.012,4.848,10.925,10.925,10.925h63.03v275.006H329.502z"/> <g> <polygon style="fill:#EF4444;" points="313.987,73.956 277.332,37.236 277.332,73.956 "/> <path style="fill:#EF4444;" d="M209.065,93.737c0-12.735-10.99-22.949-24.048-21.721c-6.788,0.711-12.735,4.848-16.549,10.602 c-4.008,6.206-13.123,6.206-17.131,0l0,0c-3.814-5.689-9.762-9.891-16.549-10.602c-12.994-1.293-24.048,8.986-24.048,21.721 c0,14.804,26.764,44.412,49.067,64.194C182.237,137.826,209.065,108.024,209.065,93.737z"/> </g> <g> <path style="fill:#ff;" d="M187.28,50.036c-10.15,0-19.717,3.491-27.345,9.632c-7.628-6.206-17.261-9.632-27.345-9.632 c-24.048,0-43.572,19.523-43.572,43.572c0,32.453,53.333,78.222,64,87.014l0.388,0.323c3.814,3.168,9.374,3.168,13.123-0.065 l0.388-0.323c10.667-8.986,63.935-55.402,63.935-87.014C230.851,69.624,211.328,50.036,187.28,50.036z M110.803,93.737 c0-12.735,10.99-22.949,24.048-21.721c6.788,0.711,12.735,4.848,16.549,10.602l0,0c4.008,6.206,13.123,6.206,17.131,0 c3.814-5.689,9.762-9.891,16.549-10.602c12.994-1.293,24.048,8.986,24.048,21.721c0,14.352-26.828,44.154-49.196,64.194 C137.502,138.085,110.803,108.477,110.803,93.737z"/> <path style="fill:#ff;" d="M88.823,209.261c0,6.012,4.848,10.925,10.925,10.925h193.099c6.012,0,10.925-4.848,10.925-10.925 c0-6.012-4.848-10.925-10.925-10.925H99.813C93.801,198.271,88.823,203.248,88.823,209.261z"/> <path style="fill:#ff;" d="M292.847,241.455H99.813c-6.012,0-10.925,4.848-10.925,10.925c0,6.012,4.848,10.925,10.925,10.925 h193.099c6.012,0,10.925-4.848,10.925-10.925C303.837,246.303,298.859,241.455,292.847,241.455z"/> <path style="fill:#ff;" d="M292.847,284.638H99.813c-6.012,0-10.925,4.848-10.925,10.925c0,6.012,4.848,10.925,10.925,10.925 h193.099c6.012,0,10.925-4.848,10.925-10.925C303.837,289.552,298.859,284.638,292.847,284.638z"/> <path style="fill:#ff;" d="M196.976,327.887H99.813c-6.012,0-10.925,4.849-10.925,10.925s4.848,10.925,10.925,10.925h97.164 c6.012,0,10.925-4.848,10.925-10.925C207.837,332.735,202.989,327.887,196.976,327.887z"/> </g> </g>
</svg>